<svg version="1.2" xmlns="http://www.w3.org/2000/svg" viewBox="0 0 109 109" width="109" height="109"><style>.a{fill:#fff}</style><path fill-rule="evenodd" class="a" d="m0 54.1c0-29.9 24.2-54.1 54.1-54.1 29.9 0 54.1 24.2 54.1 54.1 0 29.9-24.2 54.1-54.1 54.1-29.9 0-54.1-24.2-54.1-54.1zm54.2 44.3c24.4 0 44.2-19.8 44.2-44.2 0-24.4-19.8-44.2-44.2-44.2-24.4 0-44.2 19.8-44.2 44.2 0 24.4 19.8 44.2 44.2 44.2z"/><path class="a" d="m31.5 72c0-9.4 0-31.2 0-36.4 0-2.1 2-4.1 3.9-4.1 4.9 0 27 0 36.8 0 2.8 0 4.6 2.3 4.6 4.5 0 5.2 0 26.2 0 35.8 0 3-2.2 5-4.4 5-5.4 0-27.4 0-36.5 0-2.3 0-4.4-2.2-4.4-4.8z"/></svg>