<svg version="1.2" xmlns="http://www.w3.org/2000/svg" viewBox="0 0 109 109" width="109" height="109"><style>.a{fill:#fff}</style><path fill-rule="evenodd" class="a" d="m0 54.1c0-29.9 24.2-54.1 54.1-54.1 29.9 0 54.1 24.2 54.1 54.1 0 29.9-24.2 54.1-54.1 54.1-29.9 0-54.1-24.2-54.1-54.1zm98.3 0c0-24.4-19.7-44.2-44.2-44.2-24.4 0-44.2 19.8-44.2 44.2 0 24.5 19.8 44.2 44.2 44.2 24.5 0 44.2-19.7 44.2-44.2z"/><path class="a" d="m37.6 74.5c0 0 0-33.3 0-42.5 0-0.1 0.2-1.6 1.1-2.2 0.9-0.5 2.4 0 2.5 0.1 8.4 4.9 29.1 17 37.1 21.7 0.8 0.5 1.5 1.5 1.4 2.6 0 0.9-0.7 2-1.3 2.4-7.6 4.4-36.1 21.1-36.3 21.2-0.1 0.1-2 0.7-3.2-0.2-1-0.8-1.3-3.1-1.3-3.1z"/></svg>